PathFileType	4	(x/y/z)	S05_P20_T24
DataRate	CameraRate	NumFrames	NumMarkers	Units	OrigDataRate	OrigDataStartFrame	OrigNumFrames
240	240	7	50	mm	240	134	356
Frame#	Time	Sternum			R.Acromium			L.Acromium			Top.Head			R.ASIS			L.ASIS			R.PSIS			L.PSIS			R.Great.Tro			L.Great.Tro			R.Iliac.Crest			L.Iliac.Crest			V.Sacral			R.Thigh.Upper.Post			R.Thigh.Lower.Ant			R.Thigh.Lower.Post			R.Thigh.Upper.Ant			R.Knee.Lat			R.Knee.Med			R.Shank.Upper.Post			R.Shank.Lower.Ant			R.Shank.Lower.Post			R.Shank.Upper.Ant			R.Ankle.Lat			R.Ankle.Med			R.Heel.Upper			R.Heel.Med			R.Heel.Lat			R.Toe.Lat			R.Toe.Med			R.Toe.Tip			L.Thigh.Upper.Post			L.Thigh.Lower.Ant			L.Thigh.Lower.Post			L.Thigh.Upper.Ant			L.Knee.Lat			L.Shank.Upper.Post			L.Shank.Lower.Ant			L.Shank.Lower.Post			L.Shank.Upper.Ant			L.Ankle.Lat			L.Ankle.Med			L.Heel.Upper			L.Heel.Med			L.Heel.Lat			L.Toe.Lat			L.Toe.Med			L.Toe.Tip			Cervical.Spine			Back			
		X1	Y1	Z1	X2	Y2	Z2	X3	Y3	Z3	X4	Y4	Z4	X5	Y5	Z5	X6	Y6	Z6	X7	Y7	Z7	X8	Y8	Z8	X9	Y9	Z9	X10	Y10	Z10	X11	Y11	Z11	X12	Y12	Z12	X13	Y13	Z13	X14	Y14	Z14	X15	Y15	Z15	X16	Y16	Z16	X17	Y17	Z17	X18	Y18	Z18	X19	Y19	Z19	X20	Y20	Z20	X21	Y21	Z21	X22	Y22	Z22	X23	Y23	Z23	X24	Y24	Z24	X25	Y25	Z25	X26	Y26	Z26	X27	Y27	Z27	X28	Y28	Z28	X29	Y29	Z29	X30	Y30	Z30	X31	Y31	Z31	X32	Y32	Z32	X33	Y33	Z33	X34	Y34	Z34	X35	Y35	Z35	X36	Y36	Z36	X37	Y37	Z37	X38	Y38	Z38	X39	Y39	Z39	X40	Y40	Z40	X41	Y41	Z41	X42	Y42	Z42	X43	Y43	Z43	X44	Y44	Z44	X45	Y45	Z45	X46	Y46	Z46	X47	Y47	Z47	X48	Y48	Z48	X49	Y49	Z49	X50	Y50	Z50	

134	0.55417	-616.05	1235.8	332.05	-714.93	1497.8	490.11	-715.64	1519.1	163.79	-726.62	1801.6	330.01	-692.11	987.47	454.02	-687.83	988.37	204.45	-893.79	999.59	370.52	-890.5	1006.5	279.85	-765.13	903.89	518.59	-786.8	913.54	131.02	-781.26	1067	493.23	-777.89	1065.6	159.32	-904.34	967.2	336.55	-635	701.11	510.46	-567.42	652.14	451.32	-620.62	614.98	484.71	-586.39	736.58	475.68	-596.67	528.05	466.5	-589.91	516.9	335.32	-625.35	278.18	450.76	-552.21	225.65	452.79	-610.88	204.26	433.48	-565.68	301.17	469.06	-546.23	122.66	435.76	-541.32	147.47	349.4	-605.07	67.203	371.42	-589.76	37.03	343.83	-593.89	39.653	408.41	-431.49	47.476	467.1	-395.35	66.345	350.98	-339.07	95.605	399.17	-823.44	679.6	137.52	-754.96	594.48	156.9	-826.82	584.92	152.46	-744.97	683.77	140.53	-842.31	494.55	158.36	-1001.5	360.07	167.69	-977.61	274.94	169.89	-1042.7	301.31	188.66	-941.85	334.12	155.06	-1093.9	169.72	199.8	-1051	166.15	284.06	-1167	150.26	257.56	-1163.9	123.82	290.21	-1178.7	125	230.61	-1025.6	44.252	163.69	-990.48	48.717	281.01	-935.26	42.979	223.59	-769.14	1542	333.4	-887.07	1266.4	320.97
135	0.55833	-610.21	1236.2	332.82	-709.15	1497.8	491.25	-710.09	1519.4	164.9	-721.25	1801.8	331.04	-686.5	987.86	454.72	-681.82	988.5	205.14	-888.05	999.67	370.53	-884.57	1006.2	279.84	-759.49	904.16	518.98	-780.05	913.05	131.38	-775.99	1067.3	493.65	-771.86	1065.6	159.76	-898.49	967.16	336.63	-629.95	701.16	510.91	-562.27	652.1	451.92	-615.7	615.02	485.11	-581.1	736.57	476.37	-591.92	528.02	466.95	-585.23	516.98	335.81	-622.47	278.29	451.04	-549.78	225.1	452.91	-608.7	204.27	433.73	-562.56	300.76	469.22	-544.94	122.28	435.78	-539.87	147.02	349.37	-604.46	67.633	371.37	-589.55	37.221	343.76	-593.65	39.959	408.36	-431.06	46.024	467.04	-394.67	64.325	350.85	-337.96	92.87	399	-814.36	678.55	137.39	-744.87	594.13	156.33	-816.72	583.78	151.91	-735.82	683.61	140.45	-831.41	493.74	157.44	-992.57	362.23	167.19	-970.17	276.73	169.25	-1034.7	304.23	188.18	-933.32	335.27	154.35	-1088.4	173.99	199.36	-1045.3	169.33	283.36	-1161.3	157.02	257.3	-1159	130.73	290.12	-1173.9	132.05	230.54	-1024.4	45.884	163.59	-989	49.604	280.73	-934.54	42.606	223.42	-763.44	1542.2	334.62	-881.27	1266.5	321.71
136	0.5625	-604.39	1236.6	333.58	-703.36	1497.9	492.39	-704.53	1519.8	166.01	-715.88	1802.1	332.07	-680.92	988.34	455.41	-675.86	988.68	205.84	-882.34	999.84	370.52	-878.67	1006.1	279.81	-753.87	904.53	519.37	-773.3	912.58	131.75	-770.78	1067.7	494.07	-765.88	1065.7	160.2	-892.69	967.19	336.7	-624.9	701.33	511.37	-557.14	652.17	452.54	-610.76	615.18	485.58	-575.85	736.68	477.03	-587.19	528.05	467.47	-580.6	517.12	336.36	-619.64	278.46	451.41	-547.41	224.64	453.1	-606.57	204.36	434.07	-559.49	300.41	469.46	-543.7	121.97	435.83	-538.51	146.67	349.41	-603.89	68.061	371.35	-589.36	37.445	343.72	-593.43	40.264	408.33	-430.68	44.703	467.01	-394.05	62.48	350.76	-336.94	90.328	398.86	-805.1	677.5	137.24	-734.56	593.85	155.73	-806.38	582.67	151.32	-726.52	683.5	140.34	-820.2	492.96	156.5	-983.24	364.47	166.66	-962.35	278.62	168.62	-1026.4	307.26	187.68	-924.43	336.5	153.64	-1082.5	178.45	198.94	-1039.2	172.68	282.66	-1155.2	164.05	257.05	-1153.7	137.92	290.05	-1168.7	139.4	230.48	-1023	47.782	163.49	-987.3	50.67	280.44	-933.64	42.277	223.21	-757.75	1542.5	335.83	-875.48	1266.8	322.46
137	0.56667	-598.61	1237	334.33	-697.56	1498.1	493.5	-698.97	1520.3	167.11	-710.5	1802.4	333.1	-675.38	988.89	456.09	-669.94	988.89	206.53	-876.67	1000.1	370.51	-872.82	1006	279.77	-748.27	905	519.76	-766.58	912.12	132.11	-765.63	1068.3	494.48	-759.95	1065.8	160.63	-886.92	967.29	336.77	-619.87	701.61	511.86	-552.04	652.34	453.18	-605.82	615.44	486.09	-570.64	736.89	477.69	-582.52	528.13	468.03	-576.01	517.3	336.96	-616.89	278.7	451.89	-545.09	224.24	453.36	-604.52	204.5	434.49	-556.49	300.12	469.76	-542.54	121.7	435.93	-537.22	146.4	349.5	-603.36	68.477	371.36	-589.17	37.691	343.69	-593.23	40.56	408.34	-430.33	43.506	467.01	-393.48	60.805	350.69	-336	87.975	398.76	-795.67	676.47	137.04	-724.04	593.64	155.1	-795.82	581.58	150.7	-717.07	683.46	140.2	-808.71	492.22	155.54	-973.53	366.8	166.13	-954.17	280.6	167.99	-1017.6	310.4	187.17	-915.19	337.81	152.94	-1076.2	183.08	198.54	-1032.8	176.2	281.97	-1148.6	171.29	256.82	-1147.9	145.36	290	-1163.1	147.03	230.42	-1021.3	49.962	163.38	-985.36	51.938	280.11	-932.54	42.009	222.96	-752.07	1542.8	337.03	-869.71	1267.1	323.19
138	0.57083	-592.86	1237.5	335.07	-691.75	1498.3	494.6	-693.42	1520.8	168.21	-705.11	1802.7	334.12	-669.87	989.51	456.76	-664.07	989.13	207.21	-871.03	1000.4	370.49	-867.01	1005.9	279.73	-742.71	905.56	520.16	-759.87	911.68	132.48	-760.51	1068.8	494.89	-754.07	1066	161.05	-881.2	967.45	336.83	-614.86	701.97	512.36	-546.98	652.58	453.82	-600.91	615.77	486.65	-565.47	737.17	478.33	-577.91	528.24	468.65	-571.49	517.52	337.61	-614.2	278.96	452.45	-542.84	223.9	453.68	-602.53	204.69	434.98	-553.56	299.87	470.13	-541.45	121.47	436.06	-536.02	146.19	349.63	-602.88	68.875	371.41	-589	37.95	343.69	-593.04	40.843	408.36	-430.02	42.43	467.04	-392.97	59.29	350.64	-335.15	85.809	398.67	-786.09	675.47	136.82	-713.35	593.5	154.45	-785.05	580.53	150.05	-707.48	683.47	140.03	-796.95	491.53	154.58	-963.46	369.2	165.57	-945.63	282.69	167.39	-1008.5	313.64	186.65	-905.6	339.21	152.26	-1069.5	187.89	198.16	-1026	179.87	281.29	-1141.5	178.74	256.61	-1141.7	153.01	289.96	-1156.9	154.91	230.35	-1019.3	52.439	163.26	-983.14	53.428	279.76	-931.2	41.822	222.67	-746.4	1543.2	338.22	-863.96	1267.4	323.92
139	0.575	-587.15	1238.1	335.78	-685.94	1498.6	495.67	-687.87	1521.4	169.3	-699.71	1803	335.13	-664.38	990.17	457.41	-658.25	989.39	207.87	-865.41	1000.8	370.47	-861.25	1005.9	279.68	-737.19	906.2	520.56	-753.19	911.25	132.84	-755.41	1069.5	495.29	-748.24	1066.2	161.45	-875.52	967.67	336.9	-609.89	702.39	512.89	-541.98	652.86	454.49	-596.04	616.17	487.26	-560.36	737.5	478.97	-573.38	528.37	469.3	-567.04	517.74	338.31	-611.59	279.26	453.09	-540.66	223.6	454.03	-600.62	204.91	435.52	-550.7	299.65	470.54	-540.42	121.28	436.21	-534.9	146.05	349.79	-602.43	69.248	371.48	-588.83	38.213	343.71	-592.87	41.109	408.41	-429.74	41.467	467.09	-392.51	57.928	350.6	-334.38	83.823	398.6	-776.38	674.5	136.56	-702.5	593.44	153.78	-774.11	579.53	149.39	-697.79	683.56	139.84	-784.95	490.91	153.63	-953.05	371.67	165.01	-936.74	284.86	166.8	-999.02	316.98	186.13	-895.69	340.69	151.6	-1062.4	192.86	197.8	-1018.9	183.71	280.63	-1134	186.34	256.42	-1135.1	160.85	289.93	-1150.4	162.99	230.29	-1017	55.221	163.12	-980.62	55.16	279.37	-929.58	41.739	222.33	-740.75	1543.7	339.39	-858.24	1267.8	324.65
140	0.57917	-581.48	1238.6	336.47	-680.13	1498.9	496.72	-682.33	1522	170.37	-694.3	1803.4	336.14	-658.92	990.88	458.04	-652.48	989.67	208.52	-859.82	1001.2	370.45	-855.52	1005.9	279.64	-731.69	906.9	520.97	-746.55	910.85	133.22	-750.32	1070.2	495.69	-742.46	1066.4	161.84	-869.87	967.95	336.98	-604.96	702.85	513.43	-537.04	653.16	455.17	-591.24	616.6	487.9	-555.31	737.86	479.6	-568.95	528.5	469.98	-562.68	517.97	339.03	-609.07	279.57	453.77	-538.56	223.33	454.42	-598.79	205.16	436.09	-547.94	299.46	470.99	-539.46	121.11	436.38	-533.85	145.95	349.97	-602.02	69.592	371.57	-588.67	38.473	343.73	-592.71	41.354	408.46	-429.48	40.611	467.15	-392.1	56.706	350.56	-333.68	82.009	398.53	-766.55	673.57	136.29	-691.52	593.48	153.11	-763.01	578.59	148.71	-688.02	683.71	139.63	-772.74	490.36	152.7	-942.32	374.22	164.43	-927.53	287.13	166.25	-989.21	320.4	185.6	-885.47	342.25	150.97	-1055	197.97	197.46	-1011.4	187.69	280	-1126	194.07	256.24	-1128.1	168.82	289.92	-1143.4	171.25	230.23	-1014.3	58.315	162.97	-977.77	57.147	278.96	-927.65	41.785	221.94	-735.13	1544.1	340.55	-852.53	1268.2	325.37
